<svg width="343" height="148" viewBox="0 0 343 148" fill="none" xmlns="http://www.w3.org/2000/svg">
<mask id="mask0_44_2" style="mask-type:luminance" maskUnits="userSpaceOnUse" x="0" y="0" width="142" height="148">
<path d="M0 0H141.329V148H0V0Z" fill="white"/>
</mask>
<g mask="url(#mask0_44_2)">
<path d="M135.777 45.1973C132.218 36.3833 127.12 28.468 120.634 21.6758C114.144 14.8793 106.586 9.54512 98.1732 5.81429C89.4579 1.95571 80.2042 0 70.6645 0C61.129 0 51.8711 1.95571 43.16 5.81429C34.7434 9.54512 27.189 14.8793 20.6988 21.6758C14.2086 28.468 9.11488 36.3833 5.55642 45.1973C1.87177 54.3195 0 64.01 0 74C0 83.99 1.87177 93.6805 5.55642 102.807C9.11488 111.617 14.2086 119.532 20.6988 126.329C27.189 133.121 34.7434 138.459 43.16 142.186C51.8711 146.044 61.129 148 70.6645 148C80.2042 148 89.4579 146.044 98.1732 142.186C106.586 138.455 114.144 133.121 120.634 126.324C127.12 119.532 132.218 111.617 135.777 102.803C139.461 93.6805 141.329 83.99 141.329 74C141.329 64.01 139.461 54.3195 135.777 45.1973ZM70.6645 4.03476C101.605 4.03476 127.701 26.1731 135.264 56.1167L98.8378 19.7686L90.5178 26.4726V30.9302L88.7512 32.2429V28.12L81.4955 34.247L66.8621 23.8077L3.8571 73.5375C4.09686 35.1676 33.9736 4.03476 70.6645 4.03476ZM88.7512 37.1894L90.5178 35.8768V140.816C89.929 141.005 89.3401 141.186 88.7512 141.362V37.1894ZM96.9365 138.327C96.0911 138.71 95.233 139.076 94.3707 139.42V28.4592L96.9365 26.3889V138.327ZM39.0421 66.7233L43.6143 64.0276L52.6324 68.5161V85.3995L43.4629 80.8318L39.0421 83.4394V66.7233ZM39.0421 88.0732L43.6143 85.3731L52.6324 89.866V106.745L43.4629 102.182L39.0421 104.789V88.0732ZM39.0421 109.419L43.6143 106.723L52.6324 111.211V128.095L43.4629 123.527L39.0421 126.135V109.419ZM52.6324 58.6054V64.0496L43.4629 59.4863L39.0421 62.0939V59.2705L32.5688 55.9229L41.3009 49.0294L54.9669 56.6364L52.6324 58.6054ZM58.2309 53.8835L44.6995 46.3513L66.9756 28.7675L78.3619 36.8899L58.2309 53.8835ZM12.9888 109.282L14.3642 108.498V95.7243L10.5113 97.909V104.432C6.83511 96.4995 4.55113 87.734 3.9917 78.484L29.1239 58.645L35.1892 61.7768V133.266C31.0713 130.553 27.2479 127.377 23.7988 123.818L25.7084 122.734V109.956L21.8555 112.145V121.73C18.4821 117.946 15.4999 113.771 12.9888 109.282ZM39.0421 135.618V130.769L43.6143 128.068L52.6324 132.561V141.375C47.8668 139.975 43.3157 138.036 39.0421 135.618ZM56.4853 142.38V60.5346L84.8983 36.5551V142.366C80.3094 143.415 75.5479 143.965 70.6645 143.965C65.8021 143.965 61.0575 143.419 56.4853 142.38ZM131.327 103.314L129.51 102.279V107.115C127.73 110.568 125.678 113.85 123.389 116.929L120.092 115.057V121.03C118.729 122.598 117.299 124.1 115.81 125.536V50.8838L111.957 47.1486V128.839H112.113C108.605 131.751 104.815 134.306 100.789 136.442V27.2919L136.664 63.085C137.198 66.6396 137.476 70.2868 137.476 74C137.476 84.4613 135.272 94.3896 131.327 103.314Z" fill="white"/>
</g>
<path d="M25.7084 69.6129L21.8555 71.7976V84.5758L25.7084 82.3911V69.6129Z" fill="white"/>
<path d="M120.092 66.644L123.945 68.8288V56.055L120.092 53.8702V66.644Z" fill="white"/>
<path d="M120.092 87.0381L123.945 89.2273V76.4491L120.092 74.2643V87.0381Z" fill="white"/>
<path d="M120.092 107.437L123.945 109.621V96.8475L120.092 94.6583V107.437Z" fill="white"/>
<path d="M129.51 61.4905V74.2643L133.362 76.449V63.6752L129.51 61.4905Z" fill="white"/>
<path d="M129.51 94.6583L133.362 96.8475V84.0693L129.51 81.8845V94.6583Z" fill="white"/>
<path d="M10.5114 79.3077V92.0816L14.3642 89.8968V77.123L10.5114 79.3077Z" fill="white"/>
<path d="M25.7084 89.7867L21.8555 91.9714V104.745L25.7084 102.56V89.7867Z" fill="white"/>
<path d="M163.257 56.0344C164.334 56.0344 165.28 56.1665 166.101 56.422C166.929 56.6687 167.632 56.9418 168.204 57.2325C168.864 57.5981 169.423 57.9857 169.886 58.3953L168.372 62.1834C167.968 61.8311 167.522 61.5227 167.043 61.2496C166.626 61.0162 166.134 60.8003 165.562 60.5977C164.999 60.3995 164.384 60.2982 163.711 60.2982C162.803 60.2982 162.096 60.5096 161.591 60.9325C161.087 61.3553 160.834 61.8795 160.834 62.5006C160.834 63.0556 161.087 63.5357 161.591 63.9453C162.096 64.3594 162.719 64.7558 163.459 65.1434C164.208 65.5311 165.015 65.9363 165.882 66.3592C166.757 66.782 167.564 67.2886 168.305 67.8744C169.053 68.4646 169.684 69.1606 170.189 69.9711C170.694 70.7815 170.946 71.7682 170.946 72.9311C170.946 74.0014 170.753 74.9749 170.374 75.8558C170.004 76.728 169.47 77.4724 168.776 78.0934C168.09 78.7189 167.245 79.199 166.235 79.5382C165.226 79.8642 164.082 80.0315 162.803 80.0315C161.659 80.0315 160.649 79.8818 159.774 79.5911C158.9 79.3003 158.159 78.97 157.554 78.6044C156.847 78.208 156.233 77.7367 155.72 77.1949L157.217 73.4068C157.642 73.8428 158.126 74.2437 158.664 74.6049C159.135 74.9 159.699 75.1687 160.363 75.4153C161.024 75.6532 161.764 75.7677 162.584 75.7677C163.829 75.7677 164.755 75.5211 165.36 75.0277C165.966 74.5344 166.269 73.8913 166.269 73.0896C166.269 72.4553 166.016 71.9224 165.512 71.4863C165.007 71.0414 164.384 70.623 163.644 70.2353C162.904 69.8389 162.096 69.4337 161.221 69.0196C160.346 68.5968 159.53 68.099 158.782 67.522C158.041 66.9362 157.419 66.2314 156.914 65.4077C156.418 64.5884 156.174 63.5665 156.174 62.342C156.174 61.4875 156.334 60.677 156.662 59.9106C156.998 59.1353 157.469 58.4658 158.075 57.902C158.689 57.3294 159.438 56.8757 160.313 56.5453C161.188 56.2062 162.168 56.0344 163.257 56.0344Z" fill="#FFCC53"/>
<path d="M191.348 56.5101V60.7739H184.87V79.5558H180.345V60.7739H173.867V56.5101H191.348Z" fill="#FFCC53"/>
<path d="M204.977 62.9763H204.826L201.663 70.3939H208.14L204.977 62.9763ZM199.846 74.6577L197.743 79.5558H192.914L203.009 56.5101H206.778L216.889 79.5558H212.061L209.957 74.6577H199.846Z" fill="#FFCC53"/>
<path d="M235.934 56.5101V60.7739H229.457V79.5558H224.931V60.7739H218.453V56.5101H235.934Z" fill="#FFCC53"/>
<path d="M249.412 80.0316C247.94 80.0316 246.627 79.8113 245.475 79.3797C244.318 78.9348 243.338 78.3005 242.531 77.4768C241.731 76.6575 241.122 75.662 240.697 74.4992C240.268 73.3275 240.057 72.0105 240.057 70.5525V56.5101H244.583V70.5525C244.583 72.2219 245.008 73.5081 245.862 74.4111C246.712 75.3185 247.898 75.7678 249.412 75.7678C250.914 75.7678 252.091 75.3185 252.945 74.4111C253.808 73.5081 254.241 72.2219 254.241 70.5525V56.5101H258.75V70.5525C258.75 72.0105 258.535 73.3275 258.11 74.4992C257.694 75.662 257.084 76.6575 256.277 77.4768C255.477 78.3005 254.502 78.9348 253.349 79.3797C252.192 79.8113 250.88 80.0316 249.412 80.0316Z" fill="#FFCC53"/>
<path d="M269.063 68.033H271.469C274.081 68.033 275.39 66.8261 275.39 64.4035C275.39 61.9853 274.081 60.7739 271.469 60.7739H269.063V68.033ZM281.581 79.5558H276.601L271.924 72.2968H269.063V79.5558H264.537V56.5101H271.469C272.824 56.5101 274.031 56.7039 275.087 57.0916C276.151 57.4792 277.055 58.0254 277.795 58.7301C278.544 59.4349 279.112 60.2762 279.495 61.2497C279.873 62.2143 280.067 63.267 280.067 64.4035C280.067 65.65 279.857 66.6895 279.444 67.522C279.041 68.3457 278.595 69.0197 278.115 69.5482C277.53 70.1605 276.874 70.6538 276.147 71.0282V71.1868L281.581 79.5558Z" fill="#FFCC53"/>
<path d="M285.549 56.5101H300.17V60.7739H290.075V65.813H297.916V70.0768H290.075V75.292H300.17V79.5558H285.549V56.5101Z" fill="#FFCC53"/>
<path d="M157.015 93.6957H157.705C158.445 93.6957 158.815 93.3522 158.815 92.6562C158.815 91.9647 158.445 91.6167 157.705 91.6167H157.015V93.6957ZM160.582 96.9905H159.169L157.84 94.9114H157.015V96.9905H155.72V90.401H157.705C158.083 90.401 158.428 90.4626 158.731 90.5772C159.034 90.6829 159.291 90.837 159.505 91.0353C159.716 91.2379 159.88 91.4757 159.993 91.7576C160.102 92.0395 160.161 92.3391 160.161 92.6562C160.161 93.0086 160.098 93.3081 159.976 93.5548C159.863 93.7926 159.732 93.9864 159.589 94.1362C159.429 94.3124 159.244 94.4534 159.034 94.5591V94.5943L160.582 96.9905Z" fill="white"/>
<path d="M164.334 90.401H168.507V91.6167H165.63V93.0614H167.867V94.2772H165.63V95.7748H168.507V96.9905H164.334V90.401Z" fill="white"/>
<path d="M175.272 92.251H175.238L174.329 94.3829H176.18L175.272 92.251ZM173.808 95.5986L173.202 96.9905H171.823L174.716 90.401H175.793L178.67 96.9905H177.307L176.702 95.5986H173.808Z" fill="white"/>
<path d="M183.504 95.7748H186.045V96.9905H182.209V90.401H183.504V95.7748Z" fill="white"/>
<path d="M194.915 90.401H199.088V91.6167H196.211V93.0614H198.448V94.2772H196.211V95.7748H199.088V96.9905H194.915V90.401Z" fill="white"/>
<path d="M204.944 90.2776C205.255 90.2776 205.533 90.3129 205.769 90.3834C206.004 90.4538 206.198 90.5331 206.357 90.6124C206.547 90.7181 206.711 90.8326 206.845 90.9472L206.425 92.0219C206.299 91.9294 206.172 91.8413 206.038 91.7576C205.912 91.6872 205.773 91.6299 205.617 91.5815C205.457 91.5242 205.281 91.4934 205.079 91.4934C204.818 91.4934 204.616 91.555 204.473 91.6696C204.338 91.7885 204.271 91.9426 204.271 92.1276C204.271 92.2818 204.338 92.4184 204.473 92.5329C204.616 92.6518 204.797 92.7707 205.011 92.8853C205.222 92.991 205.453 93.1055 205.701 93.22C205.958 93.339 206.189 93.4843 206.391 93.6605C206.601 93.8279 206.782 94.0261 206.929 94.2596C207.072 94.4842 207.148 94.7617 207.148 95.0876C207.148 95.4048 207.089 95.6867 206.98 95.9334C206.879 96.18 206.728 96.3915 206.526 96.5676C206.332 96.7438 206.092 96.8848 205.802 96.9905C205.52 97.083 205.196 97.1315 204.826 97.1315C204.498 97.1315 204.208 97.083 203.951 96.9905C203.703 96.9112 203.497 96.8231 203.329 96.7262C203.127 96.6117 202.946 96.4751 202.791 96.321L203.228 95.2286C203.35 95.3607 203.489 95.4753 203.649 95.581C203.771 95.6647 203.926 95.7396 204.12 95.81C204.309 95.8805 204.523 95.9157 204.759 95.9157C205.117 95.9157 205.382 95.8453 205.55 95.7043C205.726 95.5546 205.819 95.3651 205.819 95.1405C205.819 94.9643 205.743 94.8146 205.6 94.6824C205.453 94.5547 205.272 94.4357 205.062 94.33C204.847 94.2155 204.616 94.0966 204.372 93.9776C204.124 93.8631 203.893 93.7222 203.682 93.5548C203.468 93.3918 203.287 93.1936 203.144 92.9557C202.997 92.7223 202.925 92.4272 202.925 92.0748C202.925 91.8281 202.967 91.5991 203.06 91.3876C203.161 91.1674 203.295 90.9736 203.464 90.8062C203.64 90.6432 203.855 90.5155 204.103 90.4186C204.359 90.3261 204.641 90.2776 204.944 90.2776Z" fill="white"/>
<path d="M215.593 90.401V91.6167H213.742V96.9905H212.447V91.6167H210.596V90.401H215.593Z" fill="white"/>
<path d="M222.091 92.251H222.057L221.149 94.3829H222.999L222.091 92.251ZM220.627 95.5986L220.021 96.9905H218.642L221.536 90.401H222.612L225.489 96.9905H224.127L223.521 95.5986H220.627Z" fill="white"/>
<path d="M233.554 90.401V91.6167H231.703V96.9905H230.408V91.6167H228.557V90.401H233.554Z" fill="white"/>
<path d="M237.427 90.401H241.6V91.6167H238.723V93.0614H240.96V94.2772H238.723V95.7748H241.6V96.9905H237.427V90.401Z" fill="white"/>
<path d="M255.863 90.401H257.158L258.067 96.9905H256.687L256.166 93.0614H256.132L254.836 96.9905H253.76L252.447 93.0614H252.414L251.909 96.9905H250.529L251.421 90.401H252.716L254.264 95.0876H254.315L255.863 90.401Z" fill="white"/>
<path d="M264.689 92.251H264.655L263.747 94.3829H265.598L264.689 92.251ZM263.225 95.5986L262.62 96.9905H261.24L264.134 90.401H265.211L268.088 96.9905H266.725L266.119 95.5986H263.225Z" fill="white"/>
<path d="M277.094 96.9905H275.849L272.922 92.6562V96.9905H271.626V90.401H272.871L275.799 94.7353V90.401H277.094V96.9905Z" fill="white"/>
<path d="M284.071 92.251H284.038L283.129 94.3829H284.98L284.071 92.251ZM282.608 95.5986L282.002 96.9905H280.622L283.516 90.401H284.593L287.47 96.9905H286.107L285.502 95.5986H282.608Z" fill="white"/>
<path d="M293.936 90.2776C294.327 90.2776 294.664 90.3261 294.946 90.4186C295.236 90.5023 295.484 90.6036 295.686 90.7181C295.909 90.8503 296.098 91 296.258 91.1762L295.837 92.2157C295.711 92.0748 295.568 91.9515 295.4 91.8457C295.24 91.7532 295.055 91.6696 294.845 91.5991C294.63 91.5286 294.382 91.4934 294.105 91.4934C293.802 91.4934 293.516 91.5462 293.246 91.6519C292.986 91.7576 292.763 91.9118 292.573 92.11C292.393 92.2994 292.254 92.5285 292.153 92.7972C292.052 93.0703 292.001 93.3698 292.001 93.6957C292.001 94.0261 292.052 94.3256 292.153 94.5943C292.254 94.8674 292.393 95.1009 292.573 95.2991C292.763 95.4885 292.981 95.6426 293.23 95.7572C293.486 95.8629 293.768 95.9157 294.071 95.9157C294.294 95.9157 294.491 95.8893 294.66 95.8276C294.836 95.7704 294.984 95.7043 295.097 95.6338C295.232 95.5634 295.35 95.4753 295.451 95.3696V94.4181H293.684L293.987 93.2024H296.645V95.8629C296.477 96.1007 296.258 96.3122 295.989 96.4972C295.762 96.6513 295.484 96.7967 295.148 96.9376C294.811 97.0654 294.407 97.1315 293.936 97.1315C293.474 97.1315 293.045 97.0434 292.641 96.8672C292.245 96.691 291.9 96.4531 291.598 96.1448C291.303 95.8409 291.076 95.4841 290.908 95.07C290.748 94.6472 290.672 94.1891 290.672 93.6957C290.672 93.2156 290.748 92.7619 290.908 92.3391C291.076 91.9162 291.303 91.555 291.598 91.2467C291.9 90.9428 292.245 90.7093 292.641 90.5419C293.045 90.3657 293.474 90.2776 293.936 90.2776Z" fill="white"/>
<path d="M300.829 90.401H305.002V91.6167H302.125V93.0614H304.362V94.2772H302.125V95.7748H305.002V96.9905H300.829V90.401Z" fill="white"/>
<path d="M314.139 90.401H315.435L316.343 96.9905H314.963L314.442 93.0614H314.408L313.113 96.9905H312.036L310.724 93.0614H310.69L310.185 96.9905H308.806L309.697 90.401H310.993L312.541 95.0876H312.591L314.139 90.401Z" fill="white"/>
<path d="M320.341 90.401H324.513V91.6167H321.636V93.0614H323.874V94.2772H321.636V95.7748H324.513V96.9905H320.341V90.401Z" fill="white"/>
<path d="M334.122 96.9905H332.877L329.949 92.6562V96.9905H328.654V90.401H329.899L332.826 94.7353V90.401H334.122V96.9905Z" fill="white"/>
<path d="M343 90.401V91.6167H341.149V96.9905H339.854V91.6167H338.003V90.401H343Z" fill="white"/>
</svg>
